<svg id="svg" xmlns="http://www.w3.org/2000/svg" xmlns:xlink="http://www.w3.org/1999/xlink" width="400" height="400" viewBox="0, 0, 400,400" version="1.1"><g id="svgg"><path id="path0" d="M288.167 36.523 C 286.654 36.697,281.967 37.249,277.750 37.751 C 273.533 38.252,267.383 38.964,264.083 39.333 C 260.783 39.702,255.946 40.263,253.333 40.580 C 250.721 40.897,245.546 41.498,241.833 41.915 C 238.121 42.332,232.308 43.006,228.917 43.413 C 225.525 43.820,220.987 44.345,218.833 44.581 C 216.679 44.817,211.504 45.417,207.333 45.915 C 203.162 46.413,197.650 47.052,195.083 47.335 C 192.517 47.619,187.342 48.219,183.583 48.668 C 179.825 49.118,174.987 49.679,172.833 49.914 C 170.679 50.149,165.504 50.750,161.333 51.248 C 157.162 51.747,151.987 52.347,149.833 52.582 C 147.679 52.816,142.504 53.417,138.333 53.916 C 134.162 54.415,128.650 55.054,126.083 55.336 C 123.517 55.618,118.942 56.148,115.917 56.514 C 112.892 56.880,107.454 57.511,103.833 57.917 C 100.212 58.323,95.037 58.922,92.333 59.250 C 89.629 59.577,85.476 60.065,83.103 60.333 C 80.731 60.601,78.754 60.857,78.709 60.902 C 78.612 60.999,78.930 63.742,80.663 77.750 C 81.388 83.617,82.591 93.367,83.334 99.417 C 84.078 105.467,85.136 114.017,85.685 118.417 C 86.234 122.817,87.011 129.154,87.412 132.500 C 87.814 135.846,88.559 141.921,89.069 146.000 C 89.953 153.080,90.989 161.466,93.998 185.917 C 94.743 191.967,95.944 201.717,96.667 207.583 C 97.390 213.450,98.590 223.200,99.335 229.250 C 104.124 268.160,104.858 274.079,104.890 274.102 C 104.979 274.166,128.827 270.675,129.285 270.532 C 130.009 270.305,125.469 265.199,121.436 261.704 C 117.161 257.999,116.129 256.663,115.337 253.809 C 114.149 249.526,114.785 244.864,117.231 239.917 C 120.047 234.224,122.525 231.472,132.086 223.417 C 148.866 209.279,153.458 202.422,152.514 192.909 C 151.668 184.391,149.698 178.699,146.214 174.708 C 144.960 173.271,144.931 173.297,145.067 175.750 C 145.131 176.896,145.140 177.833,145.088 177.833 C 144.705 177.833,142.543 173.798,141.901 171.887 C 141.545 170.825,141.270 170.372,140.351 169.330 C 139.737 168.634,138.975 167.705,138.659 167.264 L 138.084 166.464 137.869 167.190 C 137.751 167.590,137.568 168.723,137.463 169.708 C 137.358 170.694,137.227 171.500,137.173 171.500 C 136.886 171.500,135.004 164.962,135.001 163.958 C 134.998 162.618,134.188 164.400,133.721 166.776 L 133.438 168.218 133.129 167.318 C 132.059 164.195,131.336 160.424,131.334 157.959 C 131.333 156.620,131.265 156.316,130.490 154.223 C 129.163 150.639,128.391 147.250,127.799 142.417 C 127.594 140.742,127.494 130.784,127.680 130.598 C 127.733 130.545,128.204 130.733,128.728 131.016 C 135.596 134.737,147.052 133.142,152.375 127.725 C 155.177 124.875,155.731 123.131,155.730 117.167 C 155.728 106.594,152.307 95.344,142.755 74.500 C 141.222 71.155,141.124 71.321,142.322 75.233 C 147.496 92.127,150.157 104.351,149.744 109.333 C 149.049 117.729,146.028 121.920,137.629 126.142 C 134.529 127.700,132.049 127.827,128.487 126.610 C 117.984 123.020,104.598 107.464,104.586 98.833 C 104.582 96.007,104.866 95.193,107.272 91.123 C 108.314 89.360,109.167 87.824,109.167 87.711 C 109.167 87.497,107.011 88.215,105.099 89.066 C 104.558 89.307,104.071 89.457,104.016 89.400 C 103.756 89.128,109.249 84.434,112.667 82.009 C 113.996 81.066,115.295 80.097,115.553 79.855 L 116.023 79.417 113.720 79.333 L 111.417 79.250 114.410 77.785 C 116.056 76.979,118.023 76.079,118.781 75.785 C 120.678 75.048,120.583 75.002,117.125 74.985 L 114.083 74.971 115.333 74.376 C 117.712 73.242,130.640 67.675,132.583 66.947 C 138.615 64.688,142.944 65.765,146.397 70.386 C 150.612 76.025,154.915 78.821,161.833 80.413 L 163.083 80.701 165.417 79.587 C 169.657 77.563,172.818 76.323,176.000 75.435 C 176.767 75.221,177.107 74.986,178.083 73.993 C 180.496 71.541,182.890 69.772,185.520 68.500 C 187.518 67.534,187.913 67.586,186.922 68.683 C 186.109 69.582,184.629 72.685,184.889 72.945 C 184.926 72.981,185.574 72.553,186.330 71.993 C 188.069 70.703,191.516 68.460,191.612 68.556 C 191.651 68.596,191.277 69.256,190.780 70.023 C 188.419 73.661,188.494 73.716,192.865 71.527 C 196.474 69.719,198.183 68.985,197.877 69.376 C 197.408 69.974,195.333 72.838,195.333 72.888 C 195.333 72.984,204.894 73.252,207.500 73.229 C 213.845 73.172,217.689 70.529,223.346 62.333 C 224.501 60.659,225.766 59.057,226.580 58.239 L 227.917 56.895 230.167 56.117 C 235.679 54.213,238.499 54.664,243.253 58.214 C 250.825 63.865,257.202 71.774,261.329 80.631 C 269.407 97.968,260.483 101.405,247.823 85.833 C 243.182 80.125,240.771 75.204,239.329 68.500 C 238.518 64.727,237.588 62.800,235.291 60.131 C 234.020 58.654,234.007 58.696,234.913 61.340 C 236.028 64.595,236.312 66.233,236.500 70.501 C 236.820 77.740,238.094 82.882,240.453 86.455 C 240.966 87.233,241.010 87.385,240.860 87.872 C 240.768 88.171,240.608 88.942,240.504 89.583 C 240.400 90.225,240.231 91.035,240.128 91.384 L 239.942 92.018 238.513 90.621 C 236.681 88.830,235.835 88.150,233.583 86.658 C 230.741 84.774,222.960 80.563,223.833 81.381 C 223.971 81.510,224.833 82.241,225.750 83.005 C 237.601 92.883,245.177 101.682,247.998 108.844 C 249.524 112.719,250.029 115.373,250.325 121.083 C 250.640 127.148,250.692 127.361,252.346 129.333 C 256.556 134.353,262.012 142.479,263.430 145.843 C 266.820 153.880,266.060 164.853,261.471 174.135 C 259.999 177.111,260.638 176.806,253.717 177.836 L 247.850 178.708 246.467 178.337 C 245.015 177.947,243.333 177.235,243.333 177.010 C 243.333 176.937,243.697 176.137,244.141 175.231 C 245.815 171.815,246.082 170.844,245.531 170.163 L 245.228 169.790 244.096 171.240 C 240.624 175.686,233.600 181.415,228.750 183.754 C 221.568 187.220,213.887 186.831,203.417 182.471 C 196.179 179.457,184.842 172.978,179.411 168.751 L 178.417 167.977 178.361 168.432 C 178.217 169.621,178.448 170.000,180.723 172.308 C 185.226 176.873,191.350 181.956,197.252 186.025 L 199.029 187.250 198.473 187.373 C 197.951 187.489,190.696 188.296,184.492 188.928 L 181.735 189.210 181.946 190.730 C 182.062 191.566,182.574 195.588,183.084 199.667 C 183.594 203.746,184.308 209.296,184.669 212.000 C 185.031 214.704,185.593 219.092,185.919 221.750 C 186.244 224.408,186.879 229.358,187.330 232.750 C 187.781 236.142,188.531 241.992,188.998 245.750 C 189.464 249.508,189.886 252.715,189.934 252.876 C 190.045 253.240,190.275 253.180,186.000 253.909 C 184.029 254.245,182.261 254.552,182.071 254.590 C 181.777 254.648,181.680 254.514,181.428 253.704 C 175.379 234.235,161.704 223.651,144.750 225.318 C 138.791 225.904,138.083 226.411,143.201 226.428 C 157.154 226.474,166.845 234.197,173.302 250.417 C 178.943 264.585,178.070 276.656,170.858 284.207 C 163.904 291.489,150.355 292.393,140.695 286.221 L 139.806 285.653 140.813 287.118 C 145.462 293.880,150.415 296.216,159.541 295.950 C 175.134 295.495,183.119 285.090,182.815 265.627 C 182.792 264.185,182.820 262.958,182.877 262.901 C 182.989 262.789,189.474 261.846,190.183 261.838 C 190.612 261.833,190.618 261.853,190.903 263.958 C 191.640 269.401,193.371 281.423,193.426 281.480 C 193.510 281.567,199.681 280.863,210.083 279.581 C 214.850 278.993,220.137 278.358,221.833 278.168 C 223.529 277.979,228.517 277.379,232.917 276.835 C 237.317 276.292,242.304 275.690,244.000 275.498 C 245.696 275.306,250.346 274.744,254.333 274.249 C 258.321 273.754,263.608 273.118,266.083 272.836 C 268.558 272.554,273.546 271.954,277.167 271.503 C 280.787 271.052,285.775 270.452,288.250 270.170 C 290.725 269.888,295.412 269.324,298.667 268.916 C 301.921 268.508,307.516 267.835,311.100 267.420 C 318.964 266.508,321.165 266.224,321.286 266.103 C 321.400 265.988,320.970 261.486,319.500 247.417 C 318.868 241.367,318.233 235.142,318.089 233.583 C 317.944 232.025,317.417 226.887,316.916 222.167 C 316.415 217.446,315.814 211.596,315.581 209.167 C 315.348 206.737,314.711 200.512,314.166 195.333 C 313.621 190.154,313.022 184.304,312.835 182.333 C 312.402 177.772,310.985 164.431,310.927 164.372 C 310.903 164.347,309.467 164.587,307.737 164.904 C 306.007 165.221,304.565 165.454,304.533 165.421 C 304.461 165.350,302.879 149.562,302.169 141.833 C 301.887 138.762,301.249 132.162,300.751 127.167 C 300.253 122.171,299.690 116.358,299.499 114.250 C 299.309 112.142,298.745 106.329,298.247 101.333 C 297.750 96.337,297.151 90.150,296.918 87.583 C 296.684 85.017,296.082 78.792,295.578 73.750 C 295.075 68.708,294.408 61.808,294.095 58.417 C 293.782 55.025,293.164 48.631,292.723 44.208 L 291.920 36.167 291.418 36.187 C 291.142 36.197,289.679 36.349,288.167 36.523 M234.683 106.581 C 234.096 106.714,233.314 107.022,232.946 107.266 L 232.276 107.709 233.013 108.063 C 233.960 108.517,234.000 108.849,233.257 110.083 C 231.864 112.397,233.828 117.821,237.341 121.361 C 238.925 122.956,238.988 122.978,241.723 122.876 C 243.771 122.800,244.269 122.835,245.487 123.143 C 246.259 123.339,246.932 123.457,246.982 123.407 C 247.411 122.978,246.846 115.418,246.242 113.505 C 244.759 108.811,239.292 105.536,234.683 106.581 M191.367 113.517 C 187.038 114.102,182.849 116.061,180.541 118.579 C 176.381 123.118,177.163 130.694,182.215 134.792 C 183.493 135.830,183.311 135.809,184.868 135.090 C 187.775 133.747,193.916 131.937,197.041 131.502 C 198.709 131.270,198.952 131.078,199.857 129.287 C 201.560 125.912,201.136 121.350,198.857 118.520 C 197.793 117.200,197.768 116.824,198.667 115.687 C 199.033 115.223,199.333 114.737,199.333 114.607 C 199.333 113.725,194.614 113.079,191.367 113.517 M247.833 146.841 C 242.670 147.283,235.851 148.847,232.512 150.356 C 228.336 152.242,228.418 155.924,232.704 159.045 C 240.540 164.750,246.622 166.037,249.962 162.697 C 252.403 160.256,255.487 154.070,255.768 151.053 C 256.125 147.211,254.372 146.281,247.833 146.841 M304.666 173.708 C 304.665 173.915,304.964 177.721,305.329 182.167 C 305.694 186.612,306.219 193.025,306.496 196.417 C 306.773 199.808,307.259 205.621,307.576 209.333 C 307.894 213.046,308.346 218.558,308.581 221.583 C 308.816 224.608,309.382 231.471,309.838 236.833 C 311.174 252.535,311.340 254.727,311.202 254.865 C 311.130 254.936,309.424 255.290,307.411 255.651 C 301.808 256.655,294.940 257.898,287.500 259.254 C 283.787 259.931,279.813 260.642,278.667 260.833 C 277.521 261.025,274.821 261.513,272.667 261.917 C 270.512 262.322,267.004 262.956,264.870 263.326 C 262.736 263.697,259.211 264.333,257.036 264.740 C 254.862 265.147,251.921 265.675,250.500 265.913 C 249.079 266.151,245.742 266.753,243.083 267.249 C 240.425 267.745,237.313 268.308,236.167 268.499 C 235.021 268.690,231.683 269.290,228.750 269.832 C 225.817 270.375,221.917 271.079,220.083 271.397 C 218.250 271.715,214.275 272.427,211.250 272.980 C 202.826 274.519,198.123 275.347,198.089 275.296 C 198.045 275.229,195.887 257.462,195.493 253.917 C 195.310 252.267,194.678 246.979,194.089 242.167 C 193.500 237.354,192.936 232.667,192.835 231.750 C 192.734 230.833,192.205 226.446,191.660 222.000 C 191.114 217.554,190.482 212.267,190.255 210.250 C 190.029 208.233,189.489 203.680,189.054 200.132 C 188.620 196.583,188.299 193.647,188.340 193.606 C 188.382 193.565,190.779 193.220,193.667 192.839 C 196.554 192.459,200.177 191.964,201.717 191.741 C 204.460 191.344,204.530 191.342,205.134 191.640 C 206.551 192.342,211.086 193.640,215.231 194.532 C 222.735 196.147,230.060 193.744,236.196 187.657 L 238.641 185.230 240.862 184.850 C 242.084 184.641,245.221 184.069,247.833 183.579 C 250.446 183.088,253.521 182.530,254.667 182.337 C 255.813 182.144,259.337 181.505,262.500 180.917 C 265.662 180.328,269.188 179.690,270.333 179.498 C 271.479 179.306,274.779 178.707,277.667 178.168 C 280.554 177.629,283.854 177.029,285.000 176.836 C 286.146 176.643,289.671 176.003,292.833 175.415 C 304.977 173.156,304.667 173.201,304.666 173.708 M295.798 191.969 C 292.588 198.665,286.754 210.897,283.161 218.465 C 282.486 219.885,282.034 220.652,281.901 220.600 C 281.665 220.510,279.911 219.359,264.262 209.031 C 260.838 206.771,260.421 206.539,260.246 206.796 C 260.139 206.954,259.316 208.321,258.417 209.833 C 257.518 211.346,256.616 212.846,256.413 213.167 C 256.210 213.487,253.023 218.813,249.331 225.000 C 245.639 231.188,242.536 236.336,242.434 236.440 C 242.297 236.582,241.701 236.465,240.083 235.979 C 238.068 235.372,232.732 233.809,224.750 231.487 C 222.917 230.954,221.370 230.570,221.313 230.634 C 221.255 230.698,220.052 232.512,218.638 234.667 C 213.261 242.859,208.225 250.555,207.590 251.550 C 207.228 252.118,206.046 253.917,204.965 255.548 C 203.673 257.497,203.000 258.668,202.999 258.965 C 202.997 259.790,203.864 267.248,203.975 267.355 C 204.034 267.413,207.233 266.872,211.083 266.154 C 214.933 265.436,220.146 264.463,222.667 263.993 C 225.188 263.523,229.275 262.777,231.750 262.334 C 234.225 261.891,238.237 261.151,240.667 260.689 C 243.096 260.227,245.796 259.728,246.667 259.581 C 247.537 259.433,250.237 258.936,252.667 258.476 C 255.096 258.017,259.296 257.241,262.000 256.752 C 267.310 255.793,273.530 254.646,283.250 252.836 C 286.642 252.204,291.067 251.388,293.083 251.023 C 295.100 250.658,298.451 250.039,300.531 249.648 L 304.312 248.936 304.241 248.510 C 304.167 248.063,302.751 232.962,301.755 222.000 C 301.435 218.471,300.835 212.021,300.424 207.667 C 300.012 203.313,299.407 196.791,299.081 193.174 C 298.754 189.557,298.469 186.580,298.448 186.559 C 298.427 186.538,297.234 188.972,295.798 191.969 M288.750 314.518 C 275.320 315.769,268.191 324.077,268.170 338.501 C 268.143 356.214,278.767 365.514,296.932 363.676 C 310.003 362.354,316.469 354.724,316.789 340.242 C 317.200 321.693,307.477 312.773,288.750 314.518 M346.083 314.435 C 330.284 315.683,322.540 324.331,323.230 339.956 C 323.766 352.104,328.306 359.076,337.793 362.317 C 344.311 364.544,356.067 364.335,362.500 361.878 L 363.750 361.400 363.793 348.615 L 363.835 335.830 356.550 335.873 L 349.264 335.917 349.021 336.583 C 348.888 336.950,348.228 338.671,347.556 340.408 C 346.883 342.145,346.392 343.625,346.464 343.697 C 346.535 343.769,348.467 343.847,350.755 343.872 L 354.917 343.917 354.961 349.535 C 355.011 356.008,355.238 355.285,353.000 355.772 C 348.690 356.709,342.756 355.824,339.193 353.714 C 331.805 349.336,330.049 334.007,336.144 327.083 C 340.765 321.834,352.547 320.548,362.334 324.224 L 363.833 324.787 363.833 320.734 L 363.833 316.681 362.164 316.166 C 357.633 314.768,350.963 314.050,346.083 314.435 M36.167 339.091 L 36.167 363.515 48.958 363.458 C 63.036 363.395,62.979 363.399,66.250 362.315 C 75.040 359.404,79.407 352.578,80.172 340.549 C 80.990 327.704,76.507 319.197,67.333 316.189 C 63.138 314.813,61.263 314.671,47.375 314.668 L 36.167 314.667 36.167 339.091 M101.216 314.958 C 101.158 315.119,100.628 316.375,100.038 317.750 C 99.449 319.125,98.607 321.112,98.167 322.167 C 97.728 323.221,96.995 324.946,96.540 326.000 C 96.084 327.054,94.980 329.642,94.085 331.750 C 93.191 333.858,91.914 336.858,91.249 338.417 C 90.583 339.975,89.422 342.712,88.668 344.500 C 87.914 346.287,86.824 348.837,86.245 350.167 C 85.667 351.496,85.032 352.996,84.834 353.500 C 84.636 354.004,83.926 355.692,83.255 357.250 C 81.527 361.267,80.667 363.317,80.667 363.415 C 80.667 363.462,82.721 363.500,85.232 363.500 L 89.797 363.500 90.473 361.875 C 90.845 360.981,91.482 359.425,91.888 358.417 C 92.293 357.408,93.394 354.708,94.334 352.417 C 95.273 350.125,96.435 347.275,96.915 346.083 C 97.395 344.892,98.557 342.042,99.497 339.750 C 101.699 334.378,103.589 329.734,104.872 326.539 C 105.434 325.139,105.947 324.052,106.011 324.122 C 106.122 324.244,106.607 325.337,109.915 332.917 C 110.715 334.750,111.961 337.590,112.685 339.228 C 113.408 340.866,114.000 342.271,114.000 342.351 C 114.000 342.430,111.702 342.515,108.893 342.539 L 103.787 342.583 102.393 346.083 C 101.627 348.008,100.957 349.715,100.905 349.875 C 100.816 350.150,101.255 350.167,108.552 350.167 C 114.547 350.167,116.329 350.214,116.454 350.375 C 116.543 350.490,117.271 352.008,118.072 353.750 C 118.873 355.492,120.214 358.398,121.053 360.208 L 122.577 363.500 127.372 363.500 C 130.009 363.500,132.167 363.469,132.167 363.432 C 132.167 363.340,130.999 360.601,129.248 356.583 C 127.577 352.748,125.536 348.059,123.663 343.750 C 121.419 338.586,119.503 334.175,118.414 331.667 C 117.837 330.337,116.563 327.412,115.583 325.167 C 114.603 322.921,113.366 320.071,112.835 318.833 C 112.304 317.596,111.675 316.152,111.437 315.625 L 111.004 314.667 106.164 314.667 C 101.705 314.667,101.314 314.690,101.216 314.958 M127.333 318.583 L 127.333 322.500 134.333 322.500 L 141.333 322.500 141.333 343.000 L 141.333 363.500 145.833 363.500 L 150.333 363.500 150.333 343.000 L 150.333 322.500 157.333 322.500 L 164.333 322.500 164.333 318.583 L 164.333 314.667 145.833 314.667 L 127.333 314.667 127.333 318.583 M180.317 315.458 C 180.131 315.894,179.576 317.188,179.084 318.333 C 178.100 320.625,176.567 324.227,174.084 330.083 C 173.190 332.192,171.913 335.192,171.247 336.750 C 170.580 338.308,168.855 342.358,167.414 345.750 C 165.973 349.142,164.346 352.967,163.797 354.250 C 163.249 355.533,162.326 357.708,161.748 359.083 C 161.169 360.458,160.503 362.015,160.267 362.542 L 159.838 363.500 164.483 363.500 C 168.762 363.500,169.135 363.477,169.216 363.208 C 169.265 363.048,170.031 361.154,170.918 359.000 C 171.805 356.846,173.078 353.733,173.748 352.083 C 174.417 350.433,175.732 347.208,176.670 344.917 C 177.608 342.625,178.923 339.400,179.593 337.750 C 180.262 336.100,181.533 332.987,182.417 330.833 C 183.301 328.679,184.263 326.299,184.554 325.544 C 185.233 323.784,185.255 323.792,186.284 326.211 C 186.761 327.333,187.759 329.637,188.503 331.333 C 189.246 333.029,190.404 335.692,191.077 337.250 C 191.749 338.808,192.526 340.583,192.803 341.194 C 193.080 341.805,193.263 342.349,193.209 342.402 C 193.155 342.456,190.855 342.502,188.097 342.503 L 183.083 342.507 181.623 346.212 C 180.819 348.249,180.163 349.972,180.164 350.040 C 180.166 350.108,183.667 350.183,187.945 350.207 L 195.723 350.250 197.122 353.250 C 197.892 354.900,198.843 356.962,199.235 357.833 C 199.627 358.704,200.383 360.335,200.916 361.458 L 201.883 363.500 206.692 363.500 C 209.336 363.500,211.500 363.463,211.500 363.418 C 211.500 363.372,211.153 362.566,210.729 361.626 C 210.305 360.686,209.375 358.567,208.662 356.917 C 207.949 355.267,206.714 352.417,205.916 350.583 C 205.119 348.750,204.030 346.238,203.497 345.000 C 202.963 343.762,201.840 341.175,200.999 339.250 C 200.159 337.325,198.887 334.400,198.172 332.750 C 197.458 331.100,196.218 328.250,195.419 326.417 C 194.619 324.583,193.496 321.996,192.923 320.667 C 192.349 319.337,191.521 317.444,191.083 316.458 L 190.285 314.667 185.470 314.667 L 180.655 314.667 180.317 315.458 M217.667 339.080 L 217.667 363.517 230.625 363.454 C 244.918 363.384,244.669 363.402,248.081 362.256 C 257.526 359.086,262.082 350.691,261.789 337.000 C 261.541 325.450,257.277 318.760,248.417 316.020 C 244.490 314.805,244.322 314.793,230.292 314.714 L 217.667 314.643 217.667 339.080 M296.209 322.414 C 303.242 323.641,306.930 328.369,307.484 336.871 C 308.301 349.399,303.254 356.011,292.833 356.063 C 283.781 356.108,278.926 351.918,277.744 343.038 C 275.816 328.550,283.322 320.167,296.209 322.414 M60.636 322.901 C 67.998 324.618,71.229 329.261,71.206 338.083 C 71.177 348.812,66.962 354.601,58.417 355.649 C 57.584 355.751,54.303 355.833,51.042 355.833 L 45.167 355.833 45.167 339.154 L 45.167 322.475 52.292 322.545 C 58.245 322.604,59.617 322.663,60.636 322.901 M240.756 322.678 C 249.163 323.847,252.764 328.501,252.741 338.167 C 252.721 346.661,250.369 351.685,245.250 354.168 C 242.271 355.613,240.295 355.866,232.500 355.799 L 226.750 355.750 226.708 339.125 L 226.665 322.500 233.070 322.500 C 236.702 322.500,240.030 322.577,240.756 322.678 " stroke="none" fill="#642ca4" fill-rule="evenodd"></path><path id="path1" d="M0.000 200.000 L 0.000 400.000 200.000 400.000 L 400.000 400.000 400.000 200.000 L 400.000 0.000 200.000 0.000 L 0.000 0.000 0.000 200.000 M292.163 36.208 C 292.155 36.661,293.083 46.495,294.173 57.500 C 294.804 63.871,295.439 70.471,295.583 72.167 C 295.728 73.862,296.327 80.050,296.914 85.917 C 297.501 91.783,298.099 97.971,298.243 99.667 C 298.387 101.362,298.990 107.587,299.581 113.500 C 300.173 119.412,300.775 125.638,300.919 127.333 C 301.063 129.029,301.626 134.842,302.169 140.250 C 302.712 145.658,303.272 151.396,303.413 153.000 C 303.877 158.261,304.554 165.249,304.607 165.315 C 304.635 165.351,306.087 165.097,307.833 164.750 C 309.579 164.403,311.040 164.151,311.080 164.191 C 311.119 164.230,311.271 165.497,311.418 167.006 C 311.564 168.515,312.168 174.362,312.758 180.000 C 313.349 185.637,314.021 192.237,314.251 194.667 C 314.480 197.096,314.891 201.146,315.163 203.667 C 316.015 211.563,316.643 217.642,316.919 220.667 C 317.066 222.271,317.627 227.746,318.167 232.833 C 318.707 237.921,319.379 244.483,319.660 247.417 C 319.941 250.350,320.499 255.750,320.898 259.417 C 321.298 263.083,321.578 266.132,321.521 266.191 C 321.424 266.291,303.031 268.605,299.167 269.003 C 298.204 269.102,294.192 269.589,290.250 270.086 C 286.308 270.582,281.021 271.219,278.500 271.502 C 275.979 271.784,270.992 272.385,267.417 272.837 C 263.842 273.289,259.192 273.850,257.083 274.084 C 254.975 274.317,249.688 274.953,245.333 275.498 C 240.979 276.042,235.992 276.643,234.250 276.832 C 232.508 277.021,227.521 277.621,223.167 278.165 C 218.813 278.710,213.225 279.383,210.750 279.662 C 208.275 279.941,203.362 280.535,199.833 280.982 C 196.304 281.428,193.365 281.746,193.302 281.689 C 193.239 281.631,193.032 280.421,192.842 279.000 C 192.512 276.522,190.453 261.937,190.429 261.898 C 190.422 261.887,188.804 262.126,186.833 262.430 C 184.862 262.733,183.194 262.985,183.125 262.990 C 183.056 262.996,183.000 264.417,183.000 266.149 C 183.000 285.478,175.158 295.549,159.667 296.116 C 151.034 296.432,146.245 294.391,141.598 288.417 C 139.247 285.395,139.136 285.030,140.907 286.148 C 149.410 291.518,160.595 291.512,168.439 286.134 C 172.249 283.521,175.751 277.356,176.610 271.750 C 178.639 258.496,169.411 237.230,158.911 230.960 C 153.432 227.689,147.403 226.150,141.250 226.454 L 139.417 226.544 139.797 226.131 C 140.764 225.080,149.942 224.660,154.234 225.471 C 166.248 227.740,176.424 237.817,180.982 251.958 C 181.631 253.971,181.799 254.333,182.082 254.333 C 182.492 254.333,189.699 253.189,189.777 253.112 C 189.807 253.082,189.346 249.419,188.752 244.972 C 188.157 240.526,187.481 235.282,187.249 233.319 C 187.016 231.356,186.450 226.939,185.989 223.503 C 185.528 220.067,184.931 215.417,184.662 213.170 C 184.394 210.922,183.691 205.446,183.101 201.000 C 181.710 190.510,181.580 189.323,181.814 189.178 C 181.991 189.069,192.304 187.863,196.333 187.480 C 198.956 187.230,198.923 187.263,197.486 186.346 C 191.162 182.312,178.890 171.608,178.323 169.632 C 178.143 169.003,178.113 167.833,178.278 167.833 C 178.339 167.833,179.258 168.458,180.320 169.223 C 191.822 177.500,205.631 184.208,214.009 185.587 C 218.757 186.368,224.831 185.598,228.504 183.748 C 233.698 181.132,240.126 175.914,243.851 171.289 C 245.407 169.357,245.257 169.453,245.668 170.129 C 246.160 170.937,245.644 172.744,243.981 176.037 L 243.489 177.013 244.453 177.455 C 244.983 177.698,245.966 178.056,246.638 178.250 L 247.860 178.603 250.138 178.232 C 251.391 178.028,254.095 177.594,256.146 177.268 C 259.054 176.805,259.923 176.609,260.094 176.379 C 264.494 170.449,266.479 157.877,264.397 149.123 C 263.398 144.923,258.166 136.483,252.037 129.184 C 250.647 127.528,250.514 126.922,250.162 120.667 C 249.375 106.658,243.591 98.058,223.958 81.698 C 223.156 81.030,222.500 80.445,222.500 80.397 C 222.500 80.350,223.981 81.079,225.792 82.017 C 231.887 85.173,235.836 87.755,238.496 90.319 C 239.264 91.060,239.910 91.667,239.930 91.667 C 240.000 91.667,240.321 90.078,240.499 88.850 C 240.597 88.172,240.714 87.559,240.758 87.486 C 240.803 87.414,240.491 86.781,240.064 86.078 C 237.832 82.401,236.703 77.648,236.257 70.038 C 235.979 65.304,235.378 62.459,233.919 58.958 C 233.424 57.770,235.981 60.456,237.144 62.345 C 238.378 64.350,238.983 65.943,239.532 68.634 C 240.982 75.734,243.952 81.303,249.787 87.864 C 255.780 94.602,260.664 97.106,263.207 94.747 C 267.130 91.106,260.054 74.749,250.170 64.610 C 242.367 56.605,237.888 54.275,232.667 55.502 C 228.069 56.582,226.443 57.814,223.426 62.500 C 218.507 70.139,213.683 73.392,207.250 73.409 C 202.926 73.421,195.167 73.132,195.167 72.959 C 195.167 72.754,195.677 72.018,196.786 70.625 C 197.278 70.006,197.607 69.500,197.517 69.500 C 197.268 69.500,191.714 72.192,190.525 72.889 C 189.316 73.598,189.226 73.615,189.082 73.162 C 188.972 72.815,189.863 71.009,190.877 69.526 C 191.351 68.832,191.355 68.810,190.977 69.009 C 190.320 69.355,186.469 72.018,185.644 72.697 C 185.218 73.047,184.825 73.333,184.769 73.333 C 184.324 73.333,185.141 71.115,186.149 69.583 C 186.571 68.942,186.977 68.322,187.051 68.207 C 187.134 68.077,186.849 68.130,186.301 68.346 C 183.821 69.321,181.365 71.029,178.487 73.777 C 177.495 74.725,176.581 75.500,176.457 75.500 C 175.625 75.500,170.476 77.416,166.987 79.023 L 162.999 80.860 160.496 80.176 C 154.093 78.427,150.271 75.866,146.547 70.833 C 144.286 67.778,142.501 66.557,139.717 66.162 C 136.167 65.658,134.423 66.155,124.500 70.501 C 121.677 71.737,120.301 72.336,116.713 73.890 L 114.343 74.917 117.547 75.000 C 120.252 75.070,120.679 75.115,120.294 75.287 C 120.043 75.399,118.768 75.949,117.461 76.510 C 116.153 77.071,114.408 77.879,113.583 78.307 L 112.083 79.083 114.208 79.130 C 115.377 79.156,116.333 79.237,116.333 79.311 C 116.333 79.476,113.871 81.433,112.833 82.093 C 110.317 83.694,103.606 89.443,104.798 88.977 C 107.095 88.077,109.333 87.371,109.330 87.546 C 109.323 87.923,108.716 89.097,107.675 90.750 C 104.128 96.380,103.796 98.748,105.849 103.753 C 110.725 115.636,125.704 128.259,133.733 127.251 C 137.941 126.723,144.967 121.998,147.118 118.250 C 150.192 112.894,150.377 107.843,147.911 96.583 C 146.441 89.873,145.482 86.236,143.164 78.583 C 141.456 72.942,141.285 72.326,141.394 72.217 C 141.649 71.962,141.999 72.468,142.811 74.271 C 143.302 75.359,144.213 77.375,144.835 78.750 C 148.778 87.460,152.375 96.936,153.723 102.167 C 156.351 112.361,156.697 120.783,154.659 124.950 C 151.112 132.203,136.938 135.677,128.907 131.263 C 127.593 130.541,127.671 130.276,127.670 135.417 C 127.669 143.361,128.678 149.346,131.022 155.296 C 131.426 156.320,131.500 156.748,131.501 158.046 C 131.501 159.837,131.799 161.695,132.589 164.848 C 133.400 168.079,133.393 168.067,133.635 166.633 C 133.889 165.127,134.440 163.424,134.757 163.161 C 135.053 162.915,135.046 162.894,135.412 165.167 C 135.567 166.129,136.004 167.854,136.381 169.000 L 137.068 171.083 137.278 169.417 C 137.637 166.572,138.000 165.904,138.611 166.960 C 138.810 167.303,139.511 168.183,140.170 168.917 C 141.433 170.322,141.659 170.673,141.999 171.750 C 142.336 172.818,143.725 175.685,144.365 176.635 L 144.953 177.509 144.871 175.528 C 144.775 173.188,144.851 173.081,145.873 174.132 C 149.542 177.904,151.501 183.201,152.538 192.158 C 153.767 202.778,148.928 209.795,129.084 226.167 C 120.579 233.184,116.285 239.553,115.066 246.961 C 114.144 252.566,115.734 256.555,120.538 260.689 C 124.390 264.004,129.833 269.758,129.833 270.514 C 129.833 270.711,129.574 270.761,125.917 271.255 C 124.175 271.491,119.750 272.131,116.083 272.678 C 107.349 273.980,104.940 274.313,104.808 274.233 C 104.748 274.197,104.650 273.698,104.590 273.125 C 104.529 272.552,104.000 268.296,103.413 263.667 C 102.826 259.037,102.191 253.862,102.002 252.167 C 101.812 250.471,101.210 245.596,100.664 241.333 C 100.118 237.071,99.481 231.896,99.249 229.833 C 99.017 227.771,98.417 222.896,97.916 219.000 C 97.414 215.104,96.816 210.249,96.586 208.210 C 96.357 206.171,95.761 201.334,95.262 197.460 C 94.763 193.586,94.195 188.992,94.000 187.250 C 93.804 185.508,93.199 180.596,92.654 176.333 C 92.110 172.071,91.445 166.671,91.178 164.333 C 90.716 160.304,89.904 153.734,87.416 133.917 C 86.817 129.150,86.141 123.600,85.912 121.583 C 85.683 119.567,85.087 114.729,84.587 110.833 C 84.086 106.938,83.523 102.362,83.334 100.667 C 83.145 98.971,82.544 94.096,81.998 89.833 C 81.452 85.571,80.778 80.096,80.499 77.667 C 80.220 75.237,79.630 70.475,79.188 67.083 C 78.745 63.692,78.428 60.865,78.483 60.802 C 78.587 60.684,86.436 59.710,91.000 59.249 C 92.421 59.105,97.258 58.543,101.750 57.999 C 106.242 57.456,111.417 56.855,113.250 56.665 C 115.083 56.475,120.258 55.875,124.750 55.333 C 129.242 54.790,134.417 54.190,136.250 53.998 C 138.083 53.807,143.258 53.207,147.750 52.666 C 152.242 52.124,157.754 51.489,160.000 51.253 C 162.246 51.017,165.246 50.678,166.667 50.500 C 171.912 49.840,180.513 48.832,183.750 48.496 C 185.583 48.307,190.083 47.785,193.750 47.338 C 197.417 46.891,201.917 46.364,203.750 46.167 C 205.583 45.970,211.433 45.292,216.750 44.660 C 222.067 44.029,227.579 43.394,229.000 43.249 C 230.421 43.103,235.258 42.541,239.750 41.999 C 244.242 41.458,249.417 40.857,251.250 40.666 C 253.083 40.474,258.258 39.874,262.750 39.332 C 267.242 38.790,273.054 38.117,275.667 37.837 C 278.279 37.557,282.742 37.036,285.583 36.680 C 291.349 35.958,292.168 35.899,292.163 36.208 M239.274 106.683 C 242.893 107.790,245.710 110.708,246.694 114.365 C 247.167 116.127,247.496 123.833,247.097 123.833 C 247.067 123.833,246.708 123.686,246.300 123.505 C 245.216 123.026,242.928 122.809,241.030 123.006 L 239.450 123.169 238.639 122.649 C 235.926 120.908,232.509 114.998,232.502 112.036 C 232.500 111.182,233.070 109.682,233.497 109.419 C 233.963 109.131,233.663 108.526,232.911 108.239 C 232.085 107.924,232.051 107.768,232.702 107.282 C 234.018 106.299,237.102 106.018,239.274 106.683 M196.833 113.341 C 199.357 113.742,199.976 114.491,198.845 115.776 C 198.001 116.735,197.976 117.216,198.724 118.095 C 201.275 121.092,201.762 125.663,199.930 129.411 C 198.998 131.317,199.016 131.304,196.657 131.742 C 192.969 132.428,189.427 133.437,186.316 134.687 L 183.344 135.882 182.403 135.156 C 177.255 131.185,176.184 123.565,180.102 118.794 C 183.255 114.954,191.032 112.420,196.833 113.341 M254.613 147.101 C 256.990 148.874,255.824 154.582,251.861 160.578 C 249.432 164.252,247.112 165.260,243.000 164.427 C 238.283 163.471,230.623 158.577,229.724 155.945 C 228.676 152.879,229.845 151.099,233.833 149.689 C 238.458 148.053,241.160 147.470,247.333 146.773 C 249.384 146.542,254.152 146.756,254.613 147.101 M300.417 174.188 C 298.583 174.547,295.396 175.132,293.333 175.487 C 291.271 175.843,286.883 176.629,283.583 177.235 C 268.203 180.060,264.807 180.678,263.333 180.920 C 262.462 181.063,259.387 181.624,256.500 182.166 C 253.612 182.708,250.313 183.307,249.167 183.496 C 248.021 183.686,245.208 184.185,242.917 184.606 L 238.750 185.372 237.333 186.833 C 228.788 195.646,219.668 197.245,206.354 192.265 C 204.412 191.538,204.358 191.528,203.148 191.675 C 201.509 191.874,188.597 193.715,188.534 193.758 C 188.452 193.816,189.134 199.843,190.088 207.500 C 190.585 211.487,191.220 216.813,191.500 219.333 C 191.780 221.854,192.417 227.179,192.916 231.167 C 193.415 235.154,194.015 240.142,194.249 242.250 C 194.483 244.358,195.046 249.046,195.500 252.667 C 195.953 256.287,196.553 261.313,196.833 263.833 C 197.431 269.233,198.157 275.046,198.244 275.133 C 198.278 275.167,199.568 274.961,201.111 274.675 C 204.476 274.053,213.984 272.333,223.750 270.580 C 226.133 270.152,230.896 269.286,234.333 268.655 C 237.771 268.024,241.333 267.389,242.250 267.243 C 243.167 267.098,246.294 266.534,249.200 265.990 C 252.106 265.447,255.443 264.846,256.617 264.655 C 257.790 264.464,260.925 263.900,263.583 263.400 C 266.242 262.901,269.767 262.265,271.417 261.988 C 273.067 261.710,276.554 261.080,279.167 260.588 C 281.779 260.096,284.892 259.533,286.083 259.337 C 287.275 259.141,290.837 258.500,294.000 257.912 C 297.162 257.324,300.500 256.725,301.417 256.580 C 303.171 256.304,311.052 254.837,311.115 254.774 C 311.134 254.754,310.931 252.136,310.663 248.956 C 310.394 245.775,310.057 241.541,309.913 239.545 C 309.768 237.549,309.208 230.779,308.667 224.500 C 308.126 218.221,307.568 211.546,307.426 209.667 C 306.976 203.684,306.846 202.098,306.084 193.250 C 305.196 182.946,304.500 174.441,304.500 173.894 C 304.500 173.385,304.510 173.385,300.417 174.188 M299.577 196.750 C 300.081 202.067,300.646 208.217,300.831 210.417 C 301.017 212.617,301.617 219.067,302.165 224.750 C 302.713 230.433,303.348 237.258,303.575 239.917 C 303.803 242.575,304.078 245.707,304.187 246.877 C 304.296 248.047,304.350 249.039,304.307 249.082 C 304.265 249.124,302.734 249.427,300.907 249.753 C 299.079 250.080,296.196 250.607,294.500 250.924 C 292.804 251.241,289.542 251.841,287.250 252.258 C 284.958 252.675,280.308 253.535,276.917 254.169 C 273.525 254.803,270.037 255.440,269.167 255.585 C 268.296 255.731,265.258 256.295,262.417 256.838 C 259.575 257.382,255.975 258.047,254.417 258.316 C 251.736 258.780,248.959 259.292,233.083 262.253 C 229.417 262.937,225.892 263.576,225.250 263.674 C 224.608 263.773,221.983 264.259,219.417 264.755 C 216.850 265.252,213.025 265.958,210.917 266.324 C 208.808 266.691,206.371 267.138,205.500 267.317 C 204.629 267.497,203.862 267.591,203.796 267.527 C 203.631 267.365,202.799 258.831,202.918 258.520 C 202.971 258.383,205.242 254.872,207.965 250.718 C 210.689 246.564,213.215 242.697,213.579 242.125 C 217.487 235.982,221.372 230.322,221.630 230.397 C 221.788 230.443,223.304 230.893,225.000 231.398 C 226.696 231.903,229.433 232.706,231.083 233.182 C 232.733 233.659,235.934 234.586,238.196 235.242 L 242.309 236.435 247.095 228.426 C 249.727 224.021,252.232 219.854,252.662 219.167 C 253.091 218.479,253.693 217.467,254.000 216.917 C 254.307 216.367,254.908 215.354,255.337 214.667 C 255.765 213.979,257.002 211.917,258.085 210.083 C 259.168 208.250,260.144 206.650,260.255 206.528 C 260.418 206.347,261.054 206.704,263.686 208.454 C 265.463 209.635,268.903 211.910,271.331 213.509 C 273.759 215.108,277.132 217.334,278.827 218.455 C 280.521 219.576,281.959 220.438,282.022 220.371 C 282.085 220.305,282.977 218.487,284.004 216.333 C 285.031 214.179,287.054 209.942,288.499 206.917 C 291.020 201.642,293.121 197.231,295.328 192.583 C 298.525 185.849,298.403 186.076,298.536 186.599 C 298.604 186.866,299.072 191.433,299.577 196.750 M295.675 314.344 C 310.093 315.485,317.000 323.518,317.000 339.142 C 317.000 355.886,309.045 364.012,292.671 363.997 C 284.363 363.989,278.661 361.941,274.382 357.428 C 266.976 349.618,265.765 332.716,271.935 323.276 C 276.245 316.682,284.756 313.480,295.675 314.344 M355.446 314.591 C 358.060 314.933,360.301 315.402,362.292 316.023 L 364.000 316.556 364.000 320.778 C 364.000 323.100,363.969 325.000,363.931 325.000 C 363.893 325.000,363.162 324.732,362.306 324.405 C 353.103 320.883,341.958 321.775,337.023 326.428 C 330.447 332.628,331.350 347.918,338.598 353.099 C 342.394 355.812,349.404 356.749,354.542 355.230 C 354.812 355.151,354.833 354.731,354.833 349.489 L 354.833 343.833 350.500 343.833 C 348.117 343.833,346.167 343.809,346.167 343.780 C 346.167 343.700,347.398 340.395,348.367 337.875 L 349.215 335.667 356.609 335.667 L 364.002 335.667 363.959 348.603 L 363.917 361.539 363.083 361.868 C 354.289 365.341,340.188 364.606,333.042 360.302 C 326.187 356.172,323.246 349.621,323.255 338.500 C 323.262 328.664,325.511 323.233,331.366 318.908 C 336.483 315.128,346.212 313.384,355.446 314.591 M62.865 315.004 C 74.336 316.688,79.938 323.666,80.288 336.707 C 80.680 351.354,75.611 360.065,65.140 362.736 C 61.630 363.631,60.991 363.666,47.958 363.666 L 36.000 363.667 36.000 339.167 L 36.000 314.667 48.292 314.668 C 59.733 314.668,60.741 314.692,62.865 315.004 M112.210 317.000 C 112.754 318.237,113.632 320.262,114.162 321.500 C 114.692 322.737,115.772 325.231,116.562 327.042 C 119.223 333.141,120.789 336.740,121.583 338.583 C 122.017 339.592,122.927 341.670,123.603 343.202 C 124.280 344.735,124.833 346.027,124.833 346.073 C 124.833 346.120,125.331 347.267,125.939 348.621 C 126.547 349.975,127.363 351.833,127.751 352.750 C 128.756 355.120,131.015 360.316,131.809 362.083 L 132.483 363.583 127.618 363.628 C 124.943 363.652,122.673 363.641,122.574 363.603 C 122.475 363.565,121.959 362.570,121.428 361.392 C 120.896 360.214,119.952 358.162,119.329 356.833 C 118.706 355.504,117.778 353.517,117.268 352.417 L 116.340 350.417 108.503 350.373 C 104.193 350.350,100.667 350.270,100.667 350.197 C 100.667 350.067,100.815 349.683,102.748 344.794 L 103.719 342.338 108.759 342.294 L 113.799 342.250 113.058 340.500 C 112.651 339.537,111.804 337.587,111.177 336.167 C 109.368 332.067,107.096 326.850,106.585 325.625 C 106.022 324.272,105.975 324.261,105.533 325.375 C 105.342 325.856,104.540 327.825,103.750 329.750 C 102.298 333.288,100.784 336.995,97.996 343.833 C 97.155 345.896,95.916 348.933,95.244 350.583 C 94.571 352.233,93.298 355.346,92.415 357.500 C 91.532 359.654,90.617 361.923,90.381 362.542 L 89.952 363.667 85.208 363.667 L 80.464 363.667 80.573 363.233 C 80.633 362.994,81.241 361.527,81.924 359.972 C 82.608 358.417,83.167 357.100,83.167 357.044 C 83.167 356.989,83.722 355.662,84.400 354.097 C 85.919 350.590,87.259 347.451,88.498 344.500 C 89.017 343.262,89.876 341.237,90.406 340.000 C 91.850 336.634,93.623 332.474,95.166 328.833 C 95.923 327.046,97.092 324.308,97.763 322.750 C 98.434 321.192,99.128 319.542,99.307 319.083 C 99.485 318.625,99.985 317.443,100.418 316.456 L 101.205 314.662 106.213 314.706 L 111.222 314.750 112.210 317.000 M164.500 318.667 L 164.500 322.667 157.500 322.667 L 150.500 322.667 150.500 343.167 L 150.500 363.667 145.833 363.667 L 141.167 363.667 141.167 343.167 L 141.167 322.667 134.167 322.667 L 127.167 322.667 127.167 318.667 L 127.167 314.667 145.833 314.667 L 164.500 314.667 164.500 318.667 M191.276 316.500 C 191.684 317.462,192.494 319.337,193.076 320.667 C 193.658 321.996,194.787 324.583,195.585 326.417 C 196.384 328.250,197.545 330.912,198.166 332.333 C 198.786 333.754,199.649 335.742,200.082 336.750 C 200.515 337.758,201.489 340.008,202.247 341.750 C 203.004 343.492,203.980 345.742,204.415 346.750 C 204.849 347.758,205.507 349.258,205.876 350.083 C 206.245 350.908,206.976 352.596,207.499 353.833 C 208.023 355.071,208.866 357.021,209.374 358.167 C 210.784 361.349,211.518 363.054,211.617 363.375 C 211.700 363.648,211.390 363.667,206.707 363.667 L 201.708 363.667 201.333 362.792 C 200.933 361.858,198.326 356.193,196.617 352.542 L 195.583 350.333 187.691 350.333 C 181.442 350.333,179.815 350.290,179.883 350.125 C 180.024 349.781,182.331 343.975,182.648 343.167 L 182.941 342.417 187.971 342.373 C 190.912 342.347,193.000 342.264,193.000 342.174 C 193.000 342.089,192.581 341.059,192.068 339.885 C 191.555 338.711,190.797 336.962,190.383 336.000 C 189.969 335.037,189.290 333.500,188.875 332.583 C 188.460 331.667,187.637 329.792,187.047 328.417 C 186.456 327.042,185.815 325.549,185.621 325.100 L 185.268 324.283 184.950 325.017 C 184.776 325.420,183.995 327.325,183.214 329.250 C 181.679 333.039,180.436 336.094,178.366 341.167 C 177.636 342.954,176.398 345.992,175.615 347.917 C 174.831 349.842,173.466 353.179,172.580 355.333 C 171.695 357.488,170.607 360.178,170.164 361.313 C 169.720 362.448,169.291 363.443,169.209 363.524 C 169.128 363.605,166.956 363.652,164.382 363.628 L 159.703 363.583 160.283 362.167 C 160.602 361.387,161.168 360.037,161.540 359.167 C 161.913 358.296,162.775 356.271,163.458 354.667 C 164.140 353.063,165.338 350.250,166.119 348.417 C 166.901 346.583,168.047 343.883,168.667 342.417 C 169.286 340.950,170.147 338.925,170.581 337.917 C 172.315 333.882,173.417 331.300,174.422 328.917 C 175.003 327.542,176.053 325.067,176.756 323.417 C 177.460 321.767,178.523 319.254,179.118 317.833 C 179.714 316.412,180.271 315.118,180.358 314.956 C 180.503 314.683,180.881 314.665,185.524 314.706 L 190.534 314.750 191.276 316.500 M243.950 314.922 C 256.176 316.512,261.904 323.875,261.907 338.000 C 261.908 342.277,261.839 343.067,261.149 346.667 C 259.543 355.048,254.635 360.658,247.162 362.653 C 243.512 363.627,242.931 363.660,229.625 363.664 L 217.500 363.667 217.500 339.167 L 217.500 314.667 229.741 314.667 C 239.780 314.667,242.337 314.713,243.950 314.922 M288.750 322.584 C 281.915 323.875,278.264 328.613,277.684 336.942 C 276.800 349.640,282.857 356.720,293.917 355.916 C 302.879 355.264,306.992 350.443,307.279 340.250 C 307.551 330.604,304.861 325.295,298.616 323.152 C 296.180 322.316,291.571 322.051,288.750 322.584 M45.167 339.156 L 45.167 355.667 50.625 355.666 C 62.296 355.665,65.502 354.512,68.670 349.180 C 71.655 344.156,71.851 333.457,69.046 328.678 C 66.266 323.941,63.106 322.804,52.458 322.709 L 45.167 322.645 45.167 339.156 M226.833 339.167 L 226.833 355.667 232.292 355.667 C 241.595 355.666,244.022 355.200,247.221 352.796 C 253.420 348.137,254.743 333.057,249.479 327.064 C 246.260 323.399,243.594 322.667,233.478 322.667 L 226.833 322.667 226.833 339.167 " stroke="none" fill="#fbfbfb" fill-rule="evenodd"></path><path id="path2" d="M137.625 65.951 C 137.831 65.991,138.169 65.991,138.375 65.951 C 138.581 65.911,138.412 65.879,138.000 65.879 C 137.587 65.879,137.419 65.911,137.625 65.951 M195.792 73.122 C 196.181 73.157,196.819 73.157,197.208 73.122 C 197.598 73.087,197.279 73.058,196.500 73.058 C 195.721 73.058,195.402 73.087,195.792 73.122 M111.833 79.200 C 111.833 79.273,112.096 79.333,112.417 79.333 C 112.737 79.333,113.000 79.304,113.000 79.268 C 113.000 79.232,112.737 79.172,112.417 79.135 C 112.096 79.098,111.833 79.127,111.833 79.200 M251.993 90.375 C 252.684 91.111,252.833 91.243,252.833 91.118 C 252.833 91.091,252.477 90.735,252.042 90.326 L 251.250 89.583 251.993 90.375 M193.542 113.288 C 193.885 113.324,194.448 113.324,194.792 113.288 C 195.135 113.252,194.854 113.223,194.167 113.223 C 193.479 113.223,193.198 113.252,193.542 113.288 M247.042 118.417 C 247.044 118.783,247.078 118.914,247.118 118.706 C 247.158 118.499,247.156 118.199,247.115 118.040 C 247.073 117.880,247.040 118.050,247.042 118.417 M177.717 125.667 C 177.717 126.171,177.748 126.377,177.786 126.125 C 177.824 125.873,177.824 125.460,177.786 125.208 C 177.748 124.956,177.717 125.162,177.717 125.667 M127.539 134.333 C 127.539 134.654,127.573 134.785,127.615 134.625 C 127.657 134.465,127.657 134.202,127.615 134.042 C 127.573 133.881,127.539 134.012,127.539 134.333 M127.542 137.250 C 127.544 137.617,127.578 137.747,127.618 137.540 C 127.658 137.332,127.656 137.032,127.615 136.873 C 127.573 136.714,127.540 136.883,127.542 137.250 M245.044 164.620 C 245.297 164.658,245.672 164.657,245.877 164.617 C 246.082 164.578,245.875 164.546,245.417 164.548 C 244.958 164.549,244.791 164.581,245.044 164.620 M152.714 195.417 C 152.716 195.875,152.748 196.043,152.786 195.789 C 152.825 195.536,152.824 195.161,152.784 194.956 C 152.744 194.751,152.713 194.958,152.714 195.417 M143.906 212.708 L 143.417 213.250 143.958 212.760 C 144.463 212.304,144.577 212.167,144.448 212.167 C 144.419 212.167,144.175 212.410,143.906 212.708 M147.214 225.123 C 147.745 225.157,148.570 225.156,149.048 225.123 C 149.526 225.089,149.092 225.062,148.083 225.062 C 147.075 225.063,146.684 225.090,147.214 225.123 M123.833 230.750 C 123.428 231.162,123.135 231.500,123.181 231.500 C 123.226 231.500,123.595 231.162,124.000 230.750 C 124.405 230.338,124.699 230.000,124.653 230.000 C 124.607 230.000,124.238 230.338,123.833 230.750 M182.898 266.333 C 182.898 267.479,182.924 267.948,182.957 267.375 C 182.989 266.802,182.989 265.865,182.957 265.292 C 182.924 264.719,182.898 265.188,182.898 266.333 M141.247 343.083 C 141.247 354.358,141.267 358.995,141.292 353.388 C 141.316 347.780,141.316 338.555,141.292 332.888 C 141.267 327.220,141.247 331.808,141.247 343.083 M150.414 343.083 C 150.414 354.358,150.434 358.995,150.458 353.388 C 150.483 347.780,150.483 338.555,150.458 332.888 C 150.434 327.220,150.414 331.808,150.414 343.083 M268.039 337.000 C 268.039 337.321,268.073 337.452,268.115 337.292 C 268.157 337.131,268.157 336.869,268.115 336.708 C 268.073 336.548,268.039 336.679,268.039 337.000 M329.167 357.219 C 329.167 357.248,329.410 357.491,329.708 357.760 L 330.250 358.250 329.760 357.708 C 329.304 357.203,329.167 357.090,329.167 357.219 " stroke="none" fill="#ba9ed7" fill-rule="evenodd"></path><path id="path3" d="M148.833 73.552 C 148.833 73.581,149.077 73.825,149.375 74.094 L 149.917 74.583 149.427 74.042 C 148.971 73.537,148.833 73.423,148.833 73.552 M113.797 79.290 C 114.282 79.324,115.032 79.323,115.464 79.289 C 115.896 79.255,115.500 79.227,114.583 79.228 C 113.667 79.228,113.313 79.256,113.797 79.290 M247.042 119.583 C 247.044 119.950,247.078 120.080,247.118 119.873 C 247.158 119.666,247.156 119.366,247.115 119.206 C 247.073 119.047,247.040 119.217,247.042 119.583 M164.405 318.583 C 164.405 320.783,164.429 321.660,164.458 320.532 C 164.487 319.404,164.487 317.604,164.458 316.532 C 164.429 315.460,164.405 316.383,164.405 318.583 M332.550 338.500 C 332.550 339.004,332.581 339.210,332.619 338.958 C 332.658 338.706,332.658 338.294,332.619 338.042 C 332.581 337.790,332.550 337.996,332.550 338.500 M47.969 355.791 C 49.464 355.819,51.864 355.819,53.302 355.791 C 54.740 355.764,53.517 355.741,50.583 355.741 C 47.650 355.741,46.473 355.764,47.969 355.791 M229.802 355.791 C 231.298 355.819,233.698 355.819,235.135 355.791 C 236.573 355.764,235.350 355.741,232.417 355.741 C 229.483 355.741,228.307 355.764,229.802 355.791 " stroke="none" fill="#ac94d2" fill-rule="evenodd"></path><path id="path4" d="M246.667 61.052 C 246.667 61.081,246.910 61.325,247.208 61.594 L 247.750 62.083 247.260 61.542 C 246.804 61.037,246.667 60.923,246.667 61.052 M294.372 61.500 C 294.372 61.821,294.406 61.952,294.448 61.792 C 294.490 61.631,294.490 61.369,294.448 61.208 C 294.406 61.048,294.372 61.179,294.372 61.500 M249.167 63.417 C 249.478 63.737,249.770 64.000,249.815 64.000 C 249.861 64.000,249.644 63.737,249.333 63.417 C 249.022 63.096,248.730 62.833,248.685 62.833 C 248.639 62.833,248.856 63.096,249.167 63.417 M218.495 68.458 L 217.417 69.583 218.542 68.505 C 219.160 67.912,219.667 67.405,219.667 67.380 C 219.667 67.257,219.497 67.413,218.495 68.458 M144.833 68.583 C 145.144 68.904,145.436 69.167,145.482 69.167 C 145.528 69.167,145.311 68.904,145.000 68.583 C 144.689 68.262,144.397 68.000,144.351 68.000 C 144.305 68.000,144.522 68.262,144.833 68.583 M236.394 69.917 C 236.395 70.833,236.423 71.187,236.456 70.703 C 236.490 70.218,236.490 69.468,236.456 69.036 C 236.421 68.604,236.394 69.000,236.394 69.917 M236.539 73.167 C 236.539 73.487,236.573 73.619,236.615 73.458 C 236.657 73.298,236.657 73.035,236.615 72.875 C 236.573 72.715,236.539 72.846,236.539 73.167 M198.875 73.123 C 199.402 73.156,200.265 73.156,200.792 73.123 C 201.319 73.090,200.887 73.063,199.833 73.063 C 198.779 73.063,198.348 73.090,198.875 73.123 M204.044 73.286 C 204.297 73.325,204.672 73.324,204.877 73.284 C 205.082 73.244,204.875 73.213,204.417 73.214 C 203.958 73.216,203.791 73.248,204.044 73.286 M206.708 73.453 C 206.960 73.491,207.373 73.491,207.625 73.453 C 207.877 73.415,207.671 73.383,207.167 73.383 C 206.662 73.383,206.456 73.415,206.708 73.453 M104.785 88.464 C 103.979 89.283,103.855 89.500,104.194 89.500 C 104.301 89.500,104.337 89.448,104.274 89.385 C 104.210 89.321,104.514 88.909,104.948 88.468 C 105.382 88.027,105.700 87.667,105.654 87.667 C 105.608 87.667,105.217 88.025,104.785 88.464 M297.039 89.000 C 297.039 89.321,297.073 89.452,297.115 89.292 C 297.157 89.131,297.157 88.869,297.115 88.708 C 297.073 88.548,297.039 88.679,297.039 89.000 M238.417 90.500 C 238.961 91.050,239.444 91.500,239.490 91.500 C 239.535 91.500,239.128 91.050,238.583 90.500 C 238.039 89.950,237.556 89.500,237.510 89.500 C 237.465 89.500,237.872 89.950,238.417 90.500 M235.660 92.042 C 236.350 92.778,236.500 92.910,236.500 92.785 C 236.500 92.758,236.144 92.402,235.708 91.993 L 234.917 91.250 235.660 92.042 M260.627 95.785 C 260.834 95.824,261.134 95.823,261.294 95.781 C 261.453 95.739,261.283 95.707,260.917 95.709 C 260.550 95.711,260.420 95.745,260.627 95.785 M149.720 108.167 C 149.720 108.763,149.750 109.006,149.787 108.708 C 149.824 108.410,149.824 107.923,149.787 107.625 C 149.750 107.327,149.720 107.571,149.720 108.167 M243.333 109.052 C 243.333 109.081,243.577 109.325,243.875 109.594 L 244.417 110.083 243.927 109.542 C 243.471 109.037,243.333 108.923,243.333 109.052 M232.539 112.000 C 232.539 112.321,232.573 112.452,232.615 112.292 C 232.657 112.131,232.657 111.869,232.615 111.708 C 232.573 111.548,232.539 111.679,232.539 112.000 M155.705 114.167 C 155.705 114.487,155.740 114.619,155.782 114.458 C 155.823 114.298,155.823 114.035,155.782 113.875 C 155.740 113.715,155.705 113.846,155.705 114.167 M199.346 114.656 C 199.339 114.788,199.167 115.088,198.963 115.323 L 198.593 115.750 199.066 115.310 C 199.327 115.067,199.499 114.767,199.450 114.643 C 199.377 114.460,199.357 114.463,199.346 114.656 M155.888 117.417 C 155.889 118.058,155.919 118.300,155.955 117.955 C 155.991 117.609,155.990 117.084,155.954 116.788 C 155.917 116.492,155.887 116.775,155.888 117.417 M180.824 118.125 L 180.250 118.750 180.875 118.176 C 181.457 117.641,181.577 117.500,181.449 117.500 C 181.422 117.500,181.140 117.781,180.824 118.125 M247.052 121.083 C 247.053 121.633,247.084 121.838,247.121 121.539 C 247.158 121.239,247.157 120.789,247.119 120.539 C 247.081 120.288,247.051 120.533,247.052 121.083 M144.991 121.125 L 144.417 121.750 145.042 121.176 C 145.623 120.641,145.743 120.500,145.616 120.500 C 145.588 120.500,145.307 120.781,144.991 121.125 M250.372 123.167 C 250.372 123.487,250.406 123.619,250.448 123.458 C 250.490 123.298,250.490 123.035,250.448 122.875 C 250.406 122.715,250.372 122.846,250.372 123.167 M127.539 132.667 C 127.539 132.987,127.573 133.119,127.615 132.958 C 127.657 132.798,127.657 132.535,127.615 132.375 C 127.573 132.215,127.539 132.346,127.539 132.667 M136.542 133.115 C 136.702 133.157,136.965 133.157,137.125 133.115 C 137.285 133.073,137.154 133.039,136.833 133.039 C 136.512 133.039,136.381 133.073,136.542 133.115 M138.375 133.115 C 138.535 133.157,138.798 133.157,138.958 133.115 C 139.119 133.073,138.987 133.039,138.667 133.039 C 138.346 133.039,138.215 133.073,138.375 133.115 M127.539 138.833 C 127.539 139.154,127.573 139.285,127.615 139.125 C 127.657 138.965,127.657 138.702,127.615 138.542 C 127.573 138.381,127.539 138.512,127.539 138.833 M265.372 160.000 C 265.372 160.321,265.406 160.452,265.448 160.292 C 265.490 160.131,265.490 159.869,265.448 159.708 C 265.406 159.548,265.372 159.679,265.372 160.000 M180.917 172.667 C 181.646 173.400,182.280 174.000,182.326 174.000 C 182.371 174.000,181.812 173.400,181.083 172.667 C 180.354 171.933,179.720 171.333,179.674 171.333 C 179.629 171.333,180.188 171.933,180.917 172.667 M241.000 174.583 C 240.595 174.996,240.301 175.333,240.347 175.333 C 240.393 175.333,240.762 174.996,241.167 174.583 C 241.572 174.171,241.865 173.833,241.819 173.833 C 241.774 173.833,241.405 174.171,241.000 174.583 M305.372 183.500 C 305.372 183.821,305.406 183.952,305.448 183.792 C 305.490 183.631,305.490 183.369,305.448 183.208 C 305.406 183.048,305.372 183.179,305.372 183.500 M305.539 185.500 C 305.539 185.821,305.573 185.952,305.615 185.792 C 305.657 185.631,305.657 185.369,305.615 185.208 C 305.573 185.048,305.539 185.179,305.539 185.500 M238.234 185.542 C 237.919 185.913,237.920 185.914,238.250 185.647 C 238.433 185.498,238.696 185.335,238.833 185.285 C 239.046 185.207,239.043 185.191,238.817 185.180 C 238.671 185.173,238.409 185.335,238.234 185.542 M236.328 187.625 L 235.417 188.583 236.375 187.672 C 236.902 187.171,237.333 186.740,237.333 186.714 C 237.333 186.590,237.174 186.735,236.328 187.625 M305.705 187.667 C 305.705 187.987,305.740 188.119,305.782 187.958 C 305.823 187.798,305.823 187.535,305.782 187.375 C 305.740 187.215,305.705 187.346,305.705 187.667 M305.872 189.667 C 305.872 189.987,305.906 190.119,305.948 189.958 C 305.990 189.798,305.990 189.535,305.948 189.375 C 305.906 189.215,305.872 189.346,305.872 189.667 M299.705 200.167 C 299.705 200.487,299.740 200.619,299.782 200.458 C 299.823 200.298,299.823 200.035,299.782 199.875 C 299.740 199.715,299.705 199.846,299.705 200.167 M299.872 202.000 C 299.872 202.321,299.906 202.452,299.948 202.292 C 299.990 202.131,299.990 201.869,299.948 201.708 C 299.906 201.548,299.872 201.679,299.872 202.000 M142.328 214.292 L 141.417 215.250 142.375 214.339 C 143.265 213.493,143.410 213.333,143.286 213.333 C 143.260 213.333,142.829 213.765,142.328 214.292 M308.205 217.833 C 308.205 218.154,308.240 218.285,308.282 218.125 C 308.323 217.965,308.323 217.702,308.282 217.542 C 308.240 217.381,308.205 217.512,308.205 217.833 M308.375 219.917 C 308.377 220.283,308.411 220.414,308.451 220.206 C 308.491 219.999,308.490 219.699,308.448 219.540 C 308.406 219.380,308.374 219.550,308.375 219.917 M308.539 222.000 C 308.539 222.321,308.573 222.452,308.615 222.292 C 308.657 222.131,308.657 221.869,308.615 221.708 C 308.573 221.548,308.539 221.679,308.539 222.000 M170.250 234.333 C 170.608 234.700,170.938 235.000,170.984 235.000 C 171.030 235.000,170.775 234.700,170.417 234.333 C 170.059 233.967,169.728 233.667,169.682 233.667 C 169.637 233.667,169.892 233.967,170.250 234.333 M310.705 248.000 C 310.705 248.321,310.740 248.452,310.782 248.292 C 310.823 248.131,310.823 247.869,310.782 247.708 C 310.740 247.548,310.705 247.679,310.705 248.000 M114.717 249.667 C 114.717 250.171,114.748 250.377,114.786 250.125 C 114.824 249.873,114.824 249.460,114.786 249.208 C 114.748 248.956,114.717 249.162,114.717 249.667 M310.872 250.167 C 310.872 250.487,310.906 250.619,310.948 250.458 C 310.990 250.298,310.990 250.035,310.948 249.875 C 310.906 249.715,310.872 249.846,310.872 250.167 M311.039 252.167 C 311.039 252.487,311.073 252.619,311.115 252.458 C 311.157 252.298,311.157 252.035,311.115 251.875 C 311.073 251.715,311.039 251.846,311.039 252.167 M311.205 254.333 C 311.205 254.654,311.240 254.785,311.282 254.625 C 311.323 254.465,311.323 254.202,311.282 254.042 C 311.240 253.881,311.205 254.012,311.205 254.333 M124.750 264.833 C 125.755 265.842,126.615 266.667,126.661 266.667 C 126.707 266.667,125.922 265.842,124.917 264.833 C 123.911 263.825,123.052 263.000,123.006 263.000 C 122.960 263.000,123.745 263.825,124.750 264.833 M177.061 267.583 C 177.061 268.500,177.089 268.854,177.123 268.369 C 177.157 267.885,177.156 267.135,177.122 266.703 C 177.088 266.270,177.060 266.667,177.061 267.583 M182.709 269.917 C 182.711 270.283,182.745 270.414,182.785 270.206 C 182.824 269.999,182.823 269.699,182.781 269.540 C 182.739 269.380,182.707 269.550,182.709 269.917 M175.740 289.708 L 175.250 290.250 175.792 289.760 C 176.297 289.304,176.410 289.167,176.281 289.167 C 176.252 289.167,176.009 289.410,175.740 289.708 M143.667 290.750 C 143.978 291.071,144.270 291.333,144.315 291.333 C 144.361 291.333,144.144 291.071,143.833 290.750 C 143.522 290.429,143.230 290.167,143.185 290.167 C 143.139 290.167,143.356 290.429,143.667 290.750 M157.708 296.123 C 158.144 296.157,158.856 296.157,159.292 296.123 C 159.727 296.088,159.371 296.060,158.500 296.060 C 157.629 296.060,157.273 296.088,157.708 296.123 M36.083 339.167 L 36.083 363.583 47.583 363.585 L 59.083 363.587 47.626 363.542 L 36.168 363.498 36.125 339.124 L 36.082 314.750 36.083 339.167 M127.239 318.583 C 127.239 320.783,127.262 321.660,127.291 320.532 C 127.320 319.404,127.320 317.604,127.291 316.532 C 127.262 315.460,127.238 316.383,127.239 318.583 M363.906 320.750 C 363.905 323.042,363.929 324.002,363.958 322.885 C 363.987 321.767,363.987 319.892,363.958 318.718 C 363.929 317.544,363.906 318.458,363.906 320.750 M310.583 320.333 C 310.941 320.700,311.272 321.000,311.318 321.000 C 311.363 321.000,311.108 320.700,310.750 320.333 C 310.392 319.967,310.062 319.667,310.016 319.667 C 309.970 319.667,310.225 319.967,310.583 320.333 M226.749 339.069 C 226.750 353.730,226.780 355.730,227.000 355.790 C 227.184 355.841,227.195 355.820,227.042 355.712 C 226.880 355.596,226.826 351.985,226.791 338.991 L 226.748 322.417 226.749 339.069 M281.575 326.042 L 280.917 326.750 281.625 326.091 C 282.284 325.478,282.410 325.333,282.284 325.333 C 282.257 325.333,281.938 325.652,281.575 326.042 M249.083 326.500 C 249.441 326.867,249.772 327.167,249.818 327.167 C 249.863 327.167,249.608 326.867,249.250 326.500 C 248.892 326.133,248.562 325.833,248.516 325.833 C 248.470 325.833,248.725 326.133,249.083 326.500 M268.205 335.500 C 268.205 335.821,268.240 335.952,268.282 335.792 C 268.323 335.631,268.323 335.369,268.282 335.208 C 268.240 335.048,268.205 335.179,268.205 335.500 M80.205 336.167 C 80.205 336.487,80.240 336.619,80.282 336.458 C 80.323 336.298,80.323 336.035,80.282 335.875 C 80.240 335.715,80.205 335.846,80.205 336.167 M349.277 335.790 C 349.234 335.860,352.492 335.896,356.518 335.872 L 363.837 335.826 363.794 348.655 C 363.770 355.711,363.807 361.427,363.876 361.357 C 363.945 361.288,363.983 355.498,363.959 348.491 L 363.917 335.750 356.636 335.707 C 352.631 335.683,349.320 335.720,349.277 335.790 M332.542 337.083 C 332.544 337.450,332.578 337.580,332.618 337.373 C 332.658 337.166,332.656 336.866,332.615 336.706 C 332.573 336.547,332.540 336.717,332.542 337.083 M261.887 337.833 C 261.887 338.429,261.917 338.673,261.954 338.375 C 261.991 338.077,261.991 337.590,261.954 337.292 C 261.917 336.994,261.887 337.237,261.887 337.833 M71.218 337.917 C 71.219 338.467,71.250 338.672,71.287 338.372 C 71.325 338.072,71.324 337.622,71.286 337.372 C 71.248 337.122,71.217 337.367,71.218 337.917 M316.894 339.250 C 316.895 340.167,316.923 340.520,316.956 340.036 C 316.990 339.552,316.990 338.802,316.956 338.369 C 316.921 337.937,316.894 338.333,316.894 339.250 M268.048 338.750 C 268.049 339.208,268.081 339.376,268.120 339.123 C 268.158 338.869,268.157 338.494,268.117 338.289 C 268.078 338.084,268.046 338.292,268.048 338.750 M307.539 339.000 C 307.539 339.321,307.573 339.452,307.615 339.292 C 307.657 339.131,307.657 338.869,307.615 338.708 C 307.573 338.548,307.539 338.679,307.539 339.000 M80.209 339.750 C 80.211 340.117,80.245 340.247,80.285 340.040 C 80.324 339.832,80.323 339.532,80.281 339.373 C 80.239 339.214,80.207 339.383,80.209 339.750 M332.545 340.000 C 332.545 340.412,332.578 340.581,332.618 340.375 C 332.657 340.169,332.657 339.831,332.618 339.625 C 332.578 339.419,332.545 339.587,332.545 340.000 M71.039 341.000 C 71.039 341.321,71.073 341.452,71.115 341.292 C 71.157 341.131,71.157 340.869,71.115 340.708 C 71.073 340.548,71.039 340.679,71.039 341.000 M113.833 342.167 C 113.833 342.274,112.059 342.333,108.843 342.333 C 106.099 342.333,103.818 342.390,103.776 342.458 C 103.733 342.527,106.016 342.562,108.849 342.537 C 113.252 342.497,114.000 342.455,114.000 342.245 C 114.000 342.110,113.962 342.000,113.917 342.000 C 113.871 342.000,113.833 342.075,113.833 342.167 M188.167 342.333 L 183.083 342.424 188.115 342.462 C 191.332 342.486,193.184 342.440,193.250 342.333 C 193.307 342.242,193.330 342.184,193.302 342.205 C 193.273 342.226,190.963 342.283,188.167 342.333 M354.908 349.583 C 354.908 352.700,354.931 353.951,354.958 352.364 C 354.986 350.777,354.985 348.227,354.958 346.698 C 354.931 345.168,354.908 346.467,354.908 349.583 M100.810 350.210 C 100.880 350.280,104.420 350.317,108.677 350.293 L 116.417 350.250 108.550 350.167 C 104.223 350.121,100.740 350.140,100.810 350.210 M180.143 350.210 C 180.213 350.280,183.753 350.317,188.010 350.293 L 195.750 350.250 187.883 350.167 C 183.557 350.121,180.074 350.140,180.143 350.210 M303.075 352.542 L 302.417 353.250 303.125 352.591 C 303.515 352.229,303.833 351.910,303.833 351.883 C 303.833 351.757,303.688 351.883,303.075 352.542 M56.458 355.784 C 56.665 355.824,57.002 355.824,57.208 355.784 C 57.415 355.745,57.246 355.712,56.833 355.712 C 56.421 355.712,56.252 355.745,56.458 355.784 M238.044 355.786 C 238.297 355.825,238.672 355.824,238.877 355.784 C 239.082 355.744,238.875 355.713,238.417 355.714 C 237.958 355.716,237.791 355.748,238.044 355.786 M291.708 356.123 C 292.235 356.156,293.098 356.156,293.625 356.123 C 294.152 356.090,293.721 356.063,292.667 356.063 C 291.612 356.063,291.181 356.090,291.708 356.123 M348.042 356.123 C 348.569 356.156,349.431 356.156,349.958 356.123 C 350.485 356.090,350.054 356.063,349.000 356.063 C 347.946 356.063,347.515 356.090,348.042 356.123 M255.333 357.917 C 254.928 358.329,254.635 358.667,254.681 358.667 C 254.726 358.667,255.095 358.329,255.500 357.917 C 255.905 357.504,256.199 357.167,256.153 357.167 C 256.107 357.167,255.738 357.504,255.333 357.917 M201.709 363.333 C 201.768 363.548,202.466 363.584,206.680 363.587 L 211.583 363.591 206.758 363.543 C 203.167 363.507,201.896 363.442,201.787 363.289 C 201.681 363.139,201.660 363.151,201.709 363.333 M80.500 363.542 C 80.500 363.610,82.619 363.651,85.208 363.632 C 89.946 363.597,89.408 363.538,83.625 363.459 C 81.906 363.436,80.500 363.473,80.500 363.542 M127.333 363.500 L 122.417 363.591 127.282 363.629 C 130.387 363.653,132.184 363.606,132.250 363.500 C 132.307 363.408,132.330 363.350,132.302 363.371 C 132.273 363.392,130.037 363.450,127.333 363.500 M143.542 363.625 C 144.802 363.653,146.865 363.653,148.125 363.625 C 149.385 363.596,148.354 363.573,145.833 363.573 C 143.313 363.573,142.281 363.596,143.542 363.625 M162.135 363.625 C 163.447 363.653,165.547 363.653,166.802 363.625 C 168.057 363.596,166.983 363.573,164.417 363.573 C 161.850 363.573,160.823 363.596,162.135 363.625 M223.375 363.625 C 226.560 363.650,231.773 363.650,234.958 363.625 C 238.144 363.600,235.537 363.579,229.167 363.579 C 222.796 363.579,220.190 363.600,223.375 363.625 M288.542 363.782 C 288.702 363.823,288.965 363.823,289.125 363.782 C 289.285 363.740,289.154 363.705,288.833 363.705 C 288.512 363.705,288.381 363.740,288.542 363.782 M296.375 363.782 C 296.535 363.823,296.798 363.823,296.958 363.782 C 297.119 363.740,296.987 363.705,296.667 363.705 C 296.346 363.705,296.215 363.740,296.375 363.782 M353.375 363.782 C 353.535 363.823,353.798 363.823,353.958 363.782 C 354.119 363.740,353.988 363.705,353.667 363.705 C 353.346 363.705,353.215 363.740,353.375 363.782 M291.534 363.957 C 292.149 363.989,293.199 363.989,293.868 363.957 C 294.536 363.926,294.033 363.899,292.750 363.899 C 291.467 363.899,290.920 363.925,291.534 363.957 M347.875 363.957 C 348.585 363.988,349.748 363.988,350.458 363.957 C 351.169 363.926,350.587 363.900,349.167 363.900 C 347.746 363.900,347.165 363.926,347.875 363.957 " stroke="none" fill="#ac87cd" fill-rule="evenodd"></path><path id="path5" d="M292.372 39.667 C 292.372 39.987,292.406 40.119,292.448 39.958 C 292.490 39.798,292.490 39.535,292.448 39.375 C 292.406 39.215,292.372 39.346,292.372 39.667 M292.539 41.333 C 292.539 41.654,292.573 41.785,292.615 41.625 C 292.657 41.465,292.657 41.202,292.615 41.042 C 292.573 40.881,292.539 41.012,292.539 41.333 M292.705 43.167 C 292.705 43.487,292.740 43.619,292.782 43.458 C 292.823 43.298,292.823 43.035,292.782 42.875 C 292.740 42.715,292.705 42.846,292.705 43.167 M234.792 55.121 C 235.090 55.158,235.577 55.158,235.875 55.121 C 236.173 55.084,235.929 55.053,235.333 55.053 C 234.737 55.053,234.494 55.084,234.792 55.121 M226.573 58.208 L 226.083 58.750 226.625 58.260 C 227.130 57.804,227.243 57.667,227.115 57.667 C 227.086 57.667,226.842 57.910,226.573 58.208 M233.900 58.875 C 233.834 58.990,233.843 59.026,233.919 58.957 C 233.996 58.887,234.252 59.000,234.488 59.207 L 234.917 59.583 234.513 59.125 C 234.046 58.596,234.058 58.601,233.900 58.875 M249.667 64.083 C 250.442 64.862,251.113 65.500,251.159 65.500 C 251.205 65.500,250.608 64.862,249.833 64.083 C 249.058 63.304,248.387 62.667,248.341 62.667 C 248.295 62.667,248.892 63.304,249.667 64.083 M295.039 67.167 C 295.039 67.487,295.073 67.619,295.115 67.458 C 295.157 67.298,295.157 67.035,295.115 66.875 C 295.073 66.715,295.039 66.846,295.039 67.167 M218.577 68.542 L 217.750 69.417 218.625 68.590 C 219.106 68.135,219.500 67.741,219.500 67.715 C 219.500 67.590,219.346 67.729,218.577 68.542 M236.221 68.917 C 236.222 69.558,236.252 69.800,236.288 69.455 C 236.324 69.109,236.324 68.584,236.287 68.288 C 236.250 67.992,236.221 68.275,236.221 68.917 M144.750 68.667 C 145.108 69.033,145.438 69.333,145.484 69.333 C 145.530 69.333,145.275 69.033,144.917 68.667 C 144.559 68.300,144.228 68.000,144.182 68.000 C 144.137 68.000,144.392 68.300,144.750 68.667 M295.205 69.000 C 295.205 69.321,295.240 69.452,295.282 69.292 C 295.323 69.131,295.323 68.869,295.282 68.708 C 295.240 68.548,295.205 68.679,295.205 69.000 M295.372 70.667 C 295.372 70.987,295.406 71.119,295.448 70.958 C 295.490 70.798,295.490 70.535,295.448 70.375 C 295.406 70.215,295.372 70.346,295.372 70.667 M201.128 73.287 C 201.428 73.325,201.878 73.324,202.128 73.286 C 202.378 73.248,202.133 73.217,201.583 73.218 C 201.033 73.219,200.828 73.250,201.128 73.287 M204.875 73.448 C 205.035 73.490,205.298 73.490,205.458 73.448 C 205.619 73.406,205.487 73.372,205.167 73.372 C 204.846 73.372,204.715 73.406,204.875 73.448 M105.333 88.083 C 104.928 88.496,104.635 88.833,104.681 88.833 C 104.726 88.833,105.095 88.496,105.500 88.083 C 105.905 87.671,106.199 87.333,106.153 87.333 C 106.107 87.333,105.738 87.671,105.333 88.083 M238.660 90.542 C 239.350 91.278,239.500 91.410,239.500 91.285 C 239.500 91.258,239.144 90.902,238.708 90.493 L 237.917 89.750 238.660 90.542 M235.500 92.083 C 236.551 93.138,237.449 94.000,237.495 94.000 C 237.540 94.000,236.718 93.138,235.667 92.083 C 234.615 91.029,233.718 90.167,233.672 90.167 C 233.626 90.167,234.449 91.029,235.500 92.083 M238.833 95.583 C 239.144 95.904,239.436 96.167,239.482 96.167 C 239.528 96.167,239.311 95.904,239.000 95.583 C 238.689 95.263,238.397 95.000,238.351 95.000 C 238.305 95.000,238.522 95.263,238.833 95.583 M297.872 96.500 C 297.872 96.821,297.906 96.952,297.948 96.792 C 297.990 96.631,297.990 96.369,297.948 96.208 C 297.906 96.048,297.872 96.179,297.872 96.500 M298.039 98.333 C 298.039 98.654,298.073 98.785,298.115 98.625 C 298.157 98.465,298.157 98.202,298.115 98.042 C 298.073 97.881,298.039 98.013,298.039 98.333 M192.208 113.282 C 192.369 113.323,192.631 113.323,192.792 113.282 C 192.952 113.240,192.821 113.205,192.500 113.205 C 192.179 113.205,192.048 113.240,192.208 113.282 M247.045 117.167 C 247.045 117.579,247.078 117.748,247.118 117.542 C 247.157 117.335,247.157 116.998,247.118 116.792 C 247.078 116.585,247.045 116.754,247.045 117.167 M115.167 117.417 C 115.478 117.737,115.770 118.000,115.815 118.000 C 115.861 118.000,115.644 117.737,115.333 117.417 C 115.022 117.096,114.730 116.833,114.685 116.833 C 114.639 116.833,114.856 117.096,115.167 117.417 M144.909 121.042 L 144.250 121.750 144.958 121.091 C 145.617 120.478,145.743 120.333,145.617 120.333 C 145.590 120.333,145.271 120.652,144.909 121.042 M247.223 122.167 C 247.223 122.854,247.252 123.135,247.288 122.792 C 247.324 122.448,247.324 121.885,247.288 121.542 C 247.252 121.198,247.223 121.479,247.223 122.167 M300.539 124.000 C 300.539 124.321,300.573 124.452,300.615 124.292 C 300.657 124.131,300.657 123.869,300.615 123.708 C 300.573 123.548,300.539 123.679,300.539 124.000 M300.705 125.833 C 300.705 126.154,300.740 126.285,300.782 126.125 C 300.823 125.965,300.823 125.702,300.782 125.542 C 300.740 125.381,300.705 125.513,300.705 125.833 M181.250 134.167 C 181.608 134.533,181.938 134.833,181.984 134.833 C 182.030 134.833,181.775 134.533,181.417 134.167 C 181.059 133.800,180.728 133.500,180.682 133.500 C 180.637 133.500,180.892 133.800,181.250 134.167 M127.552 135.750 C 127.553 136.300,127.584 136.505,127.621 136.205 C 127.658 135.906,127.657 135.456,127.619 135.205 C 127.581 134.955,127.551 135.200,127.552 135.750 M303.039 149.833 C 303.039 150.154,303.073 150.285,303.115 150.125 C 303.157 149.965,303.157 149.702,303.115 149.542 C 303.073 149.381,303.039 149.512,303.039 149.833 M303.205 151.667 C 303.205 151.987,303.240 152.119,303.282 151.958 C 303.323 151.798,303.323 151.535,303.282 151.375 C 303.240 151.215,303.205 151.346,303.205 151.667 M303.372 153.333 C 303.372 153.654,303.406 153.785,303.448 153.625 C 303.490 153.465,303.490 153.202,303.448 153.042 C 303.406 152.881,303.372 153.012,303.372 153.333 M265.389 157.167 C 265.389 157.854,265.419 158.135,265.455 157.792 C 265.491 157.448,265.491 156.885,265.455 156.542 C 265.419 156.198,265.389 156.479,265.389 157.167 M249.909 162.875 L 249.250 163.583 249.958 162.925 C 250.348 162.562,250.667 162.243,250.667 162.216 C 250.667 162.090,250.522 162.216,249.909 162.875 M246.375 164.615 C 246.535 164.657,246.798 164.657,246.958 164.615 C 247.119 164.573,246.987 164.539,246.667 164.539 C 246.346 164.539,246.215 164.573,246.375 164.615 M137.205 170.000 C 137.205 170.321,137.240 170.452,137.282 170.292 C 137.323 170.131,137.323 169.869,137.282 169.708 C 137.240 169.548,137.205 169.679,137.205 170.000 M180.250 172.167 C 180.608 172.533,180.938 172.833,180.984 172.833 C 181.030 172.833,180.775 172.533,180.417 172.167 C 180.059 171.800,179.728 171.500,179.682 171.500 C 179.637 171.500,179.892 171.800,180.250 172.167 M144.905 173.555 C 144.858 173.677,144.842 174.445,144.870 175.263 L 144.919 176.750 145.001 175.041 C 145.083 173.346,145.068 173.128,144.905 173.555 M240.746 174.708 L 239.417 176.083 240.792 174.754 C 242.069 173.519,242.243 173.333,242.121 173.333 C 242.096 173.333,241.477 173.952,240.746 174.708 M304.539 174.667 C 304.539 174.987,304.573 175.119,304.615 174.958 C 304.657 174.798,304.657 174.535,304.615 174.375 C 304.573 174.215,304.539 174.346,304.539 174.667 M304.709 176.750 C 304.711 177.117,304.745 177.247,304.785 177.040 C 304.824 176.832,304.823 176.532,304.781 176.373 C 304.739 176.214,304.707 176.383,304.709 176.750 M304.875 178.917 C 304.877 179.283,304.911 179.414,304.951 179.206 C 304.991 178.999,304.990 178.699,304.948 178.540 C 304.906 178.380,304.874 178.550,304.875 178.917 M305.042 180.917 C 305.044 181.283,305.078 181.414,305.118 181.206 C 305.158 180.999,305.156 180.699,305.115 180.540 C 305.073 180.380,305.040 180.550,305.042 180.917 M216.542 185.948 C 216.702 185.990,216.965 185.990,217.125 185.948 C 217.285 185.906,217.154 185.872,216.833 185.872 C 216.512 185.872,216.381 185.906,216.542 185.948 M219.375 185.948 C 219.535 185.990,219.798 185.990,219.958 185.948 C 220.119 185.906,219.987 185.872,219.667 185.872 C 219.346 185.872,219.215 185.906,219.375 185.948 M196.875 187.448 C 197.035 187.490,197.298 187.490,197.458 187.448 C 197.619 187.406,197.487 187.372,197.167 187.372 C 196.846 187.372,196.715 187.406,196.875 187.448 M236.158 187.958 L 235.583 188.583 236.208 188.009 C 236.552 187.693,236.833 187.412,236.833 187.384 C 236.833 187.257,236.692 187.377,236.158 187.958 M219.295 195.121 C 219.594 195.158,220.044 195.157,220.295 195.119 C 220.545 195.081,220.300 195.051,219.750 195.052 C 219.200 195.053,218.995 195.084,219.295 195.121 M307.205 207.000 C 307.205 207.321,307.240 207.452,307.282 207.292 C 307.323 207.131,307.323 206.869,307.282 206.708 C 307.240 206.548,307.205 206.679,307.205 207.000 M300.539 208.000 C 300.539 208.321,300.573 208.452,300.615 208.292 C 300.657 208.131,300.657 207.869,300.615 207.708 C 300.573 207.548,300.539 207.679,300.539 208.000 M307.375 209.083 C 307.377 209.450,307.411 209.580,307.451 209.373 C 307.491 209.166,307.490 208.866,307.448 208.706 C 307.406 208.547,307.374 208.717,307.375 209.083 M300.705 209.833 C 300.705 210.154,300.740 210.285,300.782 210.125 C 300.823 209.965,300.823 209.702,300.782 209.542 C 300.740 209.381,300.705 209.512,300.705 209.833 M307.545 211.167 C 307.545 211.579,307.578 211.748,307.618 211.542 C 307.657 211.335,307.657 210.998,307.618 210.792 C 307.578 210.585,307.545 210.754,307.545 211.167 M307.709 213.250 C 307.711 213.617,307.745 213.747,307.785 213.540 C 307.824 213.332,307.823 213.032,307.781 212.873 C 307.739 212.714,307.707 212.883,307.709 213.250 M307.872 215.333 C 307.872 215.654,307.906 215.785,307.948 215.625 C 307.990 215.465,307.990 215.202,307.948 215.042 C 307.906 214.881,307.872 215.012,307.872 215.333 M139.658 216.958 L 139.083 217.583 139.708 217.009 C 140.290 216.474,140.410 216.333,140.283 216.333 C 140.255 216.333,139.974 216.615,139.658 216.958 M316.539 217.500 C 316.539 217.821,316.573 217.952,316.615 217.792 C 316.657 217.631,316.657 217.369,316.615 217.208 C 316.573 217.048,316.539 217.179,316.539 217.500 M145.292 225.118 C 145.498 225.157,145.835 225.157,146.042 225.118 C 146.248 225.078,146.079 225.045,145.667 225.045 C 145.254 225.045,145.085 225.078,145.292 225.118 M150.125 225.118 C 150.331 225.157,150.669 225.157,150.875 225.118 C 151.081 225.078,150.912 225.045,150.500 225.045 C 150.087 225.045,149.919 225.078,150.125 225.118 M162.667 233.719 C 162.667 233.748,162.910 233.991,163.208 234.260 L 163.750 234.750 163.260 234.208 C 162.804 233.703,162.667 233.590,162.667 233.719 M303.039 234.833 C 303.039 235.154,303.073 235.285,303.115 235.125 C 303.157 234.965,303.157 234.702,303.115 234.542 C 303.073 234.381,303.039 234.512,303.039 234.833 M303.205 236.667 C 303.205 236.987,303.240 237.119,303.282 236.958 C 303.323 236.798,303.323 236.535,303.282 236.375 C 303.240 236.215,303.205 236.346,303.205 236.667 M303.372 238.500 C 303.372 238.821,303.406 238.952,303.448 238.792 C 303.490 238.631,303.490 238.369,303.448 238.208 C 303.406 238.048,303.372 238.179,303.372 238.500 M310.042 241.417 C 310.044 241.783,310.078 241.914,310.118 241.706 C 310.158 241.499,310.156 241.199,310.115 241.040 C 310.073 240.880,310.040 241.050,310.042 241.417 M310.209 243.417 C 310.211 243.783,310.245 243.914,310.285 243.706 C 310.324 243.499,310.323 243.199,310.281 243.040 C 310.239 242.880,310.207 243.050,310.209 243.417 M319.205 243.667 C 319.205 243.987,319.240 244.119,319.282 243.958 C 319.323 243.798,319.323 243.535,319.282 243.375 C 319.240 243.215,319.205 243.346,319.205 243.667 M310.372 245.500 C 310.372 245.821,310.406 245.952,310.448 245.792 C 310.490 245.631,310.490 245.369,310.448 245.208 C 310.406 245.048,310.372 245.179,310.372 245.500 M182.900 263.067 C 182.850 263.196,182.841 263.552,182.878 263.859 C 182.941 264.371,182.949 264.359,182.973 263.721 C 182.993 263.212,183.079 263.004,183.292 262.948 C 183.565 262.877,183.565 262.871,183.286 262.853 C 183.123 262.842,182.949 262.939,182.900 263.067 M124.833 264.750 C 125.608 265.529,126.280 266.167,126.326 266.167 C 126.372 266.167,125.775 265.529,125.000 264.750 C 124.225 263.971,123.553 263.333,123.507 263.333 C 123.462 263.333,124.058 263.971,124.833 264.750 M176.883 266.000 C 176.883 266.504,176.915 266.710,176.953 266.458 C 176.991 266.206,176.991 265.794,176.953 265.542 C 176.915 265.290,176.883 265.496,176.883 266.000 M176.885 269.083 C 176.886 269.633,176.917 269.838,176.954 269.539 C 176.991 269.239,176.990 268.789,176.952 268.539 C 176.914 268.288,176.884 268.533,176.885 269.083 M182.883 269.167 C 182.883 269.671,182.915 269.877,182.953 269.625 C 182.991 269.373,182.991 268.960,182.953 268.708 C 182.915 268.456,182.883 268.662,182.883 269.167 M154.375 290.286 C 154.627 290.324,155.040 290.324,155.292 290.286 C 155.544 290.248,155.337 290.217,154.833 290.217 C 154.329 290.217,154.123 290.248,154.375 290.286 M291.964 314.290 C 292.448 314.324,293.198 314.323,293.631 314.289 C 294.063 314.255,293.667 314.227,292.750 314.228 C 291.833 314.228,291.480 314.256,291.964 314.290 M348.714 314.290 C 349.245 314.323,350.070 314.323,350.548 314.289 C 351.026 314.256,350.592 314.229,349.583 314.229 C 348.575 314.229,348.184 314.257,348.714 314.290 M217.581 339.167 C 217.581 352.688,217.601 358.219,217.625 351.458 C 217.649 344.698,217.649 333.635,217.625 326.875 C 217.601 320.115,217.581 325.646,217.581 339.167 M74.500 320.417 C 75.091 321.012,75.611 321.500,75.657 321.500 C 75.703 321.500,75.257 321.012,74.667 320.417 C 74.076 319.821,73.555 319.333,73.510 319.333 C 73.464 319.333,73.909 319.821,74.500 320.417 M328.994 320.958 L 328.083 321.917 329.042 321.006 C 329.569 320.505,330.000 320.073,330.000 320.047 C 330.000 319.924,329.841 320.068,328.994 320.958 M273.824 320.792 L 273.250 321.417 273.875 320.842 C 274.457 320.308,274.577 320.167,274.449 320.167 C 274.422 320.167,274.140 320.448,273.824 320.792 M291.875 322.289 C 292.310 322.324,293.023 322.324,293.458 322.289 C 293.894 322.255,293.537 322.227,292.667 322.227 C 291.796 322.227,291.440 322.255,291.875 322.289 M349.381 322.290 C 349.912 322.323,350.737 322.323,351.214 322.289 C 351.692 322.256,351.258 322.229,350.250 322.229 C 349.242 322.229,348.851 322.257,349.381 322.290 M48.219 322.625 C 49.944 322.652,52.719 322.652,54.386 322.625 C 56.053 322.598,54.642 322.575,51.250 322.575 C 47.858 322.575,46.494 322.598,48.219 322.625 M130.625 322.625 C 132.573 322.651,135.760 322.651,137.708 322.625 C 139.656 322.598,138.063 322.576,134.167 322.576 C 130.271 322.576,128.677 322.598,130.625 322.625 M153.958 322.625 C 155.906 322.651,159.094 322.651,161.042 322.625 C 162.990 322.598,161.396 322.576,157.500 322.576 C 153.604 322.576,152.010 322.598,153.958 322.625 M229.792 322.625 C 231.465 322.652,234.202 322.652,235.875 322.625 C 237.548 322.598,236.179 322.575,232.833 322.575 C 229.487 322.575,228.119 322.598,229.792 322.625 M303.160 325.875 C 303.850 326.611,304.000 326.743,304.000 326.618 C 304.000 326.591,303.644 326.235,303.208 325.826 L 302.417 325.083 303.160 325.875 M248.833 326.385 C 248.833 326.414,249.077 326.658,249.375 326.927 L 249.917 327.417 249.427 326.875 C 248.971 326.370,248.833 326.257,248.833 326.385 M316.875 336.083 C 316.877 336.450,316.911 336.580,316.951 336.373 C 316.991 336.166,316.990 335.866,316.948 335.706 C 316.906 335.547,316.874 335.717,316.875 336.083 M332.709 336.250 C 332.711 336.617,332.745 336.747,332.785 336.540 C 332.824 336.332,332.823 336.032,332.781 335.873 C 332.739 335.714,332.707 335.883,332.709 336.250 M71.064 337.917 C 71.064 339.017,71.091 339.445,71.124 338.868 C 71.156 338.292,71.156 337.392,71.123 336.868 C 71.090 336.345,71.063 336.817,71.064 337.917 M307.400 339.000 C 307.400 340.329,307.425 340.873,307.457 340.208 C 307.489 339.544,307.489 338.456,307.457 337.792 C 307.425 337.127,307.400 337.671,307.400 339.000 M252.721 337.917 C 252.722 338.558,252.752 338.800,252.788 338.455 C 252.824 338.109,252.824 337.584,252.787 337.288 C 252.750 336.992,252.721 337.275,252.721 337.917 M277.539 340.000 C 277.539 340.321,277.573 340.452,277.615 340.292 C 277.657 340.131,277.657 339.869,277.615 339.708 C 277.573 339.548,277.539 339.679,277.539 340.000 M332.712 340.833 C 332.712 341.246,332.745 341.415,332.784 341.208 C 332.824 341.002,332.824 340.665,332.784 340.458 C 332.745 340.252,332.712 340.421,332.712 340.833 M316.875 342.250 C 316.877 342.617,316.911 342.747,316.951 342.540 C 316.991 342.332,316.990 342.032,316.948 341.873 C 316.906 341.714,316.874 341.883,316.875 342.250 M57.211 355.620 C 57.464 355.658,57.839 355.657,58.044 355.617 C 58.249 355.578,58.042 355.546,57.583 355.548 C 57.125 355.549,56.957 355.581,57.211 355.620 M238.792 355.618 C 238.998 355.657,239.335 355.657,239.542 355.618 C 239.748 355.578,239.579 355.545,239.167 355.545 C 238.754 355.545,238.585 355.578,238.792 355.618 M290.708 355.948 C 290.869 355.990,291.131 355.990,291.292 355.948 C 291.452 355.906,291.321 355.872,291.000 355.872 C 290.679 355.872,290.548 355.906,290.708 355.948 M294.042 355.948 C 294.202 355.990,294.465 355.990,294.625 355.948 C 294.785 355.906,294.654 355.872,294.333 355.872 C 294.012 355.872,293.881 355.906,294.042 355.948 M346.960 355.951 C 347.168 355.991,347.468 355.990,347.627 355.948 C 347.786 355.906,347.617 355.874,347.250 355.875 C 346.883 355.877,346.753 355.911,346.960 355.951 M73.667 358.083 C 73.262 358.496,72.968 358.833,73.014 358.833 C 73.060 358.833,73.428 358.496,73.833 358.083 C 74.238 357.671,74.532 357.333,74.486 357.333 C 74.440 357.333,74.072 357.671,73.667 358.083 M352.708 363.948 C 352.869 363.990,353.131 363.990,353.292 363.948 C 353.452 363.906,353.321 363.872,353.000 363.872 C 352.679 363.872,352.548 363.906,352.708 363.948 " stroke="none" fill="#d9cce4" fill-rule="evenodd"></path></g></svg>